<svg width="88" height="88" viewBox="0 0 88 88" fill="none" xmlns="http://www.w3.org/2000/svg">
<rect x="2" y="2" width="84" height="84" rx="42" stroke="#F8BB86" stroke-width="4"/>
<path d="M42.5183 53.4L41.6783 24H46.7183L45.8183 53.4H42.5183ZM44.1983 66.3C43.3183 66.3 42.5583 66 41.9183 65.4C41.3183 64.76 41.0183 64.02 41.0183 63.18C41.0183 62.3 41.3183 61.58 41.9183 61.02C42.5583 60.42 43.3183 60.12 44.1983 60.12C45.1183 60.12 45.8583 60.42 46.4183 61.02C47.0183 61.58 47.3183 62.3 47.3183 63.18C47.3183 64.02 47.0183 64.76 46.4183 65.4C45.8583 66 45.1183 66.3 44.1983 66.3Z" fill="#F8BB86"/>
</svg>
