<svg width="16" height="16" viewBox="0 0 16 16" fill="none" xmlns="http://www.w3.org/2000/svg">
<path fill-rule="evenodd" clip-rule="evenodd" d="M1.33333 4.66659V9.99992C1.33333 10.7363 1.93028 11.3333 2.66666 11.3333H3.99999C4.73638 11.3333 5.33333 10.7363 5.33333 9.99992V4.66659C5.33333 3.93021 4.73638 3.33325 3.99999 3.33325H2.66666C1.93028 3.33325 1.33333 3.93021 1.33333 4.66659ZM2.66666 4.66659V9.99992H3.99999V4.66659H2.66666Z" fill="white"/>
<path fill-rule="evenodd" clip-rule="evenodd" d="M6 4.66659V8.66659C6 9.40299 6.59695 9.99992 7.33333 9.99992H8.66667C9.40307 9.99992 10 9.40299 10 8.66659V4.66659C10 3.93021 9.40307 3.33325 8.66667 3.33325H7.33333C6.59695 3.33325 6 3.93021 6 4.66659ZM7.33333 4.66659V8.66659H8.66667V4.66659H7.33333Z" fill="white"/>
<path fill-rule="evenodd" clip-rule="evenodd" d="M10.6667 11.3333V4.66659C10.6667 3.93021 11.2636 3.33325 12 3.33325H13.3333C14.0697 3.33325 14.6667 3.93021 14.6667 4.66659V11.3333C14.6667 12.0697 14.0697 12.6666 13.3333 12.6666H12C11.2636 12.6666 10.6667 12.0697 10.6667 11.3333ZM12 11.3333V4.66659H13.3333V11.3333H12Z" fill="white"/>
</svg>
