<svg width="17" height="16" viewBox="0 0 17 16" fill="none" xmlns="http://www.w3.org/2000/svg">
<path fill-rule="evenodd" clip-rule="evenodd" d="M1.99492 13.3334C1.15334 13.3334 0.471107 12.6512 0.471107 11.8096V4.19056C0.471107 3.34898 1.15334 2.66675 1.99492 2.66675H14.1854C15.027 2.66675 15.7092 3.34898 15.7092 4.19056V11.8096C15.7092 12.6512 15.027 13.3334 14.1854 13.3334H1.99492ZM14.1854 8.76199V7.23817H6.56635V8.76199H14.1854ZM14.1854 5.71437V4.19056H6.56635V5.71437H14.1854ZM14.1854 10.2858V11.8096H6.56635V10.2858H14.1854ZM1.99492 7.23817V8.76199H5.04254V7.23817H1.99492ZM1.99492 10.2858V11.8096H5.04254V10.2858H1.99492ZM1.99492 5.71437V4.19056H5.04254V5.71437H1.99492Z" fill="#172B4D"/>
</svg>
