<svg width="16" height="17" viewBox="0 0 16 17" fill="none" xmlns="http://www.w3.org/2000/svg">
<g clip-path="url(#clip0_585_247)">
<path d="M14.0267 1.01333C14.4235 1.01333 14.769 1.17521 15.0469 1.45311C15.3248 1.73102 15.4867 2.07652 15.4867 2.47333V14.4733C15.4867 14.8862 15.3392 15.2546 15.0469 15.5469C14.769 15.8248 14.4235 15.9867 14.0267 15.9867H2.02667C1.61385 15.9867 1.24539 15.8392 0.953113 15.5469C0.660839 15.2546 0.513333 14.8862 0.513333 14.4733V2.47333C0.513333 2.07652 0.675209 1.73102 0.953113 1.45311C1.23102 1.17521 1.57652 1.01333 1.97333 1.01333H14.0267ZM2.02667 1C1.58615 1 1.23461 1.14583 0.94022 1.44022C0.645828 1.73461 0.5 2.08615 0.5 2.52667V14.4733C0.5 14.9138 0.645828 15.2654 0.94022 15.5598C1.24145 15.861 1.578 16 1.97333 16H14.0267C14.422 16 14.7586 15.861 15.0598 15.5598C15.3542 15.2654 15.5 14.9138 15.5 14.4733V2.47333C15.5 2.078 15.361 1.74145 15.0598 1.44022C14.7654 1.14583 14.4138 1 13.9733 1H2.02667Z" fill="#172B4D" stroke="#172B4D"/>
</g>
<rect x="1" y="-1" width="14" height="14" transform="matrix(1 0 0 -1 0 14.5)" stroke="#172B4D" stroke-width="2"/>
<defs>
<clipPath id="clip0_585_247">
<rect width="16" height="16" transform="matrix(1 0 0 -1 0 16.5)" fill="white"/>
</clipPath>
</defs>
</svg>
